<svg width="88" height="25" viewBox="0 0 88 25" fill="none" xmlns="http://www.w3.org/2000/svg">
<path d="M0.856 24V0.863998H5.048V24H0.856ZM14.2663 24.32C12.8583 24.32 11.5889 23.968 10.4583 23.264C9.32758 22.56 8.44225 21.6 7.80225 20.384C7.16225 19.168 6.84225 17.8027 6.84225 16.288C6.84225 14.752 7.16225 13.376 7.80225 12.16C8.44225 10.944 9.32758 9.984 10.4583 9.28C11.5889 8.576 12.8583 8.224 14.2663 8.224C15.3756 8.224 16.3676 8.448 17.2423 8.896C18.1169 9.344 18.8103 9.97333 19.3223 10.784C19.8556 11.5733 20.1436 12.4693 20.1863 13.472V19.04C20.1436 20.064 19.8556 20.9707 19.3223 21.76C18.8103 22.5493 18.1169 23.1787 17.2423 23.648C16.3676 24.096 15.3756 24.32 14.2663 24.32ZM15.0343 20.448C16.2076 20.448 17.1569 20.064 17.8823 19.296C18.6076 18.5067 18.9703 17.4933 18.9703 16.256C18.9703 15.4453 18.7996 14.7307 18.4583 14.112C18.1383 13.472 17.6796 12.9813 17.0823 12.64C16.5063 12.2773 15.8236 12.096 15.0343 12.096C14.2663 12.096 13.5836 12.2773 12.9863 12.64C12.4103 12.9813 11.9516 13.472 11.6102 14.112C11.2902 14.7307 11.1302 15.4453 11.1302 16.256C11.1302 17.088 11.2902 17.824 11.6102 18.464C11.9516 19.0827 12.4103 19.5733 12.9863 19.936C13.5836 20.2773 14.2663 20.448 15.0343 20.448ZM18.7463 24V19.84L19.4183 16.064L18.7463 12.352V8.544H22.9063V24H18.7463ZM32.2467 24.32C30.8814 24.32 29.6654 24.032 28.5988 23.456C27.5534 22.88 26.7321 22.08 26.1348 21.056C25.5374 20.032 25.2387 18.848 25.2387 17.504V8.544H29.4627V17.408C29.4627 18.048 29.5694 18.6027 29.7828 19.072C29.9961 19.52 30.3161 19.8613 30.7428 20.096C31.1694 20.3307 31.6708 20.448 32.2467 20.448C33.1214 20.448 33.8041 20.1813 34.2948 19.648C34.7854 19.1147 35.0308 18.368 35.0308 17.408V8.544H39.2228V17.504C39.2228 18.8693 38.9241 20.064 38.3268 21.088C37.7508 22.112 36.9294 22.912 35.8628 23.488C34.8174 24.0427 33.6121 24.32 32.2467 24.32ZM52.001 24V15.136C52.001 14.2187 51.713 13.472 51.137 12.896C50.561 12.32 49.8143 12.032 48.897 12.032C48.2997 12.032 47.7663 12.16 47.297 12.416C46.8277 12.672 46.4543 13.0347 46.177 13.504C45.921 13.9733 45.793 14.5173 45.793 15.136L44.161 14.304C44.161 13.088 44.417 12.032 44.929 11.136C45.4623 10.2187 46.1877 9.504 47.105 8.992C48.0437 8.48 49.0997 8.224 50.273 8.224C51.4037 8.224 52.417 8.512 53.313 9.088C54.209 9.64267 54.913 10.3787 55.425 11.296C55.937 12.192 56.193 13.1627 56.193 14.208V24H52.001ZM41.601 24V8.544H45.793V24H41.601ZM65.9058 24.32C64.3271 24.32 62.9084 23.968 61.6498 23.264C60.3911 22.56 59.3991 21.6 58.6737 20.384C57.9484 19.168 57.5857 17.8027 57.5857 16.288C57.5857 14.752 57.9484 13.376 58.6737 12.16C59.3991 10.944 60.3911 9.984 61.6498 9.28C62.9298 8.55467 64.3484 8.192 65.9058 8.192C67.1218 8.192 68.2418 8.416 69.2658 8.864C70.2898 9.312 71.1751 9.952 71.9218 10.784L69.2338 13.504C68.8284 13.056 68.3378 12.7147 67.7618 12.48C67.2071 12.2453 66.5884 12.128 65.9058 12.128C65.1377 12.128 64.4444 12.3093 63.8258 12.672C63.2284 13.0133 62.7484 13.4933 62.3858 14.112C62.0444 14.7093 61.8738 15.424 61.8738 16.256C61.8738 17.0667 62.0444 17.792 62.3858 18.432C62.7484 19.0507 63.2284 19.5413 63.8258 19.904C64.4444 20.2453 65.1377 20.416 65.9058 20.416C66.6098 20.416 67.2391 20.2987 67.7938 20.064C68.3698 19.808 68.8604 19.4453 69.2658 18.976L71.9858 21.696C71.1964 22.5493 70.2898 23.2 69.2658 23.648C68.2418 24.096 67.1218 24.32 65.9058 24.32ZM83.7997 24V15.136C83.7997 14.2187 83.5117 13.472 82.9357 12.896C82.3597 12.32 81.6131 12.032 80.6957 12.032C80.0984 12.032 79.5651 12.16 79.0957 12.416C78.6264 12.672 78.2531 13.0347 77.9757 13.504C77.7197 13.9733 77.5917 14.5173 77.5917 15.136L75.9597 14.304C75.9597 13.088 76.2157 12.032 76.7277 11.136C77.2397 10.2187 77.9437 9.504 78.8397 8.992C79.7571 8.48 80.8024 8.224 81.9757 8.224C83.1491 8.224 84.1837 8.48 85.0797 8.992C85.9971 9.504 86.7117 10.208 87.2237 11.104C87.7357 12 87.9917 13.0347 87.9917 14.208V24H83.7997ZM73.3997 24V0.863998H77.5917V24H73.3997Z" fill="black"/>
</svg>
